<svg xmlns="http://www.w3.org/2000/svg" viewBox="0 0 400 300" width="406" height="306" class="illustration styles_illustrationTablet__1DWOa"><g id="_54_coffee_lover_outline" data-name="#54_coffee_lover_outline"><path d="M205.09,58.81c9.37-.61,19.49,3.57,26.6,9.08,10.88,8.44,16.22,20.8,16.82,34.32l1.61,36.16c.79,17.78,4.3,37.9-12.92,49.29-8.91,5.89-19.91,7.67-30.59,8.05-13.23.47-26.71-1.06-39.16-5.72-10-3.75-24.76-10.8-25.62-23.15-.48-6.83,3.85-12.93,6.19-19.36,4.94-13.55,1-28.64,2.66-43,1.71-14.79,15.94-46.16,35.66-40a7.31,7.31,0,0,0,3,.65,6.39,6.39,0,0,0,3-1.66A22.6,22.6,0,0,1,205.09,58.81Z" fill="#725858"></path><path d="M202.06,196.79a99.69,99.69,0,0,1-35-5.86c-16.76-6.26-25.6-14.35-26.27-24-.36-5.07,1.8-9.73,3.88-14.24.83-1.81,1.7-3.68,2.37-5.53,3-8.12,2.67-16.68,2.35-25.75a114.67,114.67,0,0,1,.26-17C151,93.25,159,73.72,170.8,66.07c5.14-3.34,10.46-4.17,15.84-2.49l.6.2a3.3,3.3,0,0,0,4.25-.85l.25-.2A23.55,23.55,0,0,1,205,57.81c10.42-.67,20.92,4.35,27.28,9.29,10.6,8.22,16.55,20.35,17.21,35.07l1.61,36.16c.09,2,.21,4,.34,6.08,1,16.55,2,33.67-13.71,44.08-7.75,5.13-17.63,7.74-31.1,8.22C205.11,196.76,203.58,196.79,202.06,196.79Zm-20.77-132a17.1,17.1,0,0,0-9.4,3c-11.25,7.32-19,26.13-20.22,36.89a113.21,113.21,0,0,0-.24,16.68c.31,8.86.63,18-2.47,26.51-.7,1.93-1.58,3.84-2.44,5.68-2.06,4.47-4,8.7-3.69,13.27.61,8.82,9,16.32,25,22.29,11.41,4.26,24.46,6.17,38.78,5.65,13.08-.47,22.64-3,30.07-7.89,14.79-9.78,13.79-26.3,12.81-42.29-.12-2.06-.25-4.1-.34-6.11l-1.61-36.16c-.63-14.12-6.31-25.73-16.44-33.58C225,64,215,59.16,205.16,59.81l-.07-1,.07,1A21.6,21.6,0,0,0,193,64.3l-.25.2a6.52,6.52,0,0,1-3.22,1.67,6.43,6.43,0,0,1-2.91-.5l-.56-.18A15.75,15.75,0,0,0,181.29,64.74Z" fill="#093f68"></path><path d="M265.91,216.74c-3.94-23.1-34.11-49-37.54-51.92-2.41-2-10.57-2.55-11.75-2.55H186.41c-1.18,0-9.35.53-11.75,2.55-3.43,2.88-33.6,28.82-37.54,51.92A13.36,13.36,0,0,0,140.34,228c3.74,4.26,11,8.47,35.3,8.47h51.75c24.29,0,31.56-4.21,35.3-8.47A13.36,13.36,0,0,0,265.91,216.74Zm-88.85-26.37v26.52c-7-.09-16.22-.68-19.34-1.33C160.6,208.44,171,197.78,177.06,190.37ZM226,216.89V190.37c6.09,7.41,16.46,18.07,19.34,25.19C242.19,216.21,233,216.8,226,216.89Z" fill="#68e1fd"></path><path d="M227.39,237.47H175.64c-24.95,0-32.23-4.45-36-8.81a14.36,14.36,0,0,1-3.46-12.09c4-23.45,34.43-49.61,37.88-52.51,3-2.49,12.31-2.79,12.4-2.79h30.21c.09,0,9.43.3,12.39,2.79,3.46,2.9,33.88,29.06,37.89,52.51h0a14.36,14.36,0,0,1-3.46,12.09C259.62,233,252.34,237.47,227.39,237.47Zm-5.48-2h5.48c24.15,0,31-4.11,34.55-8.13a12.39,12.39,0,0,0,3-10.43h0c-3.88-22.75-33.8-48.46-37.19-51.32-2-1.71-9.64-2.32-11.11-2.32H186.41c-1.47,0-9.08.61-11.11,2.32-3.4,2.86-33.31,28.57-37.2,51.32a12.36,12.36,0,0,0,3,10.43c3.53,4,10.39,8.13,34.55,8.13Zm-44.85-17.58h0c-6.7-.08-16.15-.65-19.53-1.35a1,1,0,0,1-.68-.51,1,1,0,0,1-.05-.84c2.23-5.52,8.7-12.95,14.4-19.5,1.85-2.13,3.6-4.14,5.1-5.95a1,1,0,0,1,1.1-.31,1,1,0,0,1,.67.94v26.52a1,1,0,0,1-.3.71A1,1,0,0,1,177.06,217.89Zm-17.9-3.1a168,168,0,0,0,16.9,1.08V193.12c-1.06,1.24-2.19,2.53-3.36,3.88C167.5,203,161.65,209.69,159.16,214.79Zm66.81,3.1a1,1,0,0,1-1-1V190.37a1,1,0,0,1,1.77-.63c1.49,1.81,3.24,3.82,5.09,5.94,5.71,6.56,12.17,14,14.4,19.51a1,1,0,0,1,0,.84,1,1,0,0,1-.68.51c-3.39.7-12.83,1.26-19.53,1.35Zm1-24.77v22.75a168.21,168.21,0,0,0,16.9-1.08c-2.5-5.1-8.34-11.82-13.55-17.79C229.15,195.65,228,194.35,227,193.12Z" fill="#093f68"></path><path d="M201.51,180.94a12.6,12.6,0,0,1-12.58-12.58v-6.09a1,1,0,0,1,2,0v6.09a10.59,10.59,0,0,0,21.17,0v-6.09a1,1,0,0,1,2,0v6.09A12.6,12.6,0,0,1,201.51,180.94Z" fill="#093f68"></path><rect x="175.26" y="216.89" width="16.44" height="19.58" fill="#ffc9b0"></rect><path d="M191.7,237.47H175.26a1,1,0,0,1-1-1V216.89a1,1,0,0,1,1-1H191.7a1,1,0,0,1,1,1v19.58A1,1,0,0,1,191.7,237.47Zm-15.44-2H190.7V217.89H176.26Z" fill="#093f68"></path><rect x="212.19" y="216.89" width="16.44" height="19.58" fill="#ffc9b0"></rect><path d="M228.62,237.47H212.19a1,1,0,0,1-1-1V216.89a1,1,0,0,1,1-1h16.43a1,1,0,0,1,1,1v19.58A1,1,0,0,1,228.62,237.47Zm-15.43-2h14.43V217.89H213.19Z" fill="#093f68"></path><path d="M195.37,160.62H208a0,0,0,0,1,0,0v7.29a5.36,5.36,0,0,1-5.36,5.36h-1.89a5.36,5.36,0,0,1-5.36-5.36v-7.29A0,0,0,0,1,195.37,160.62Z" fill="#ffc9b0"></path><path d="M202.62,174.26h-1.89a6.36,6.36,0,0,1-6.36-6.36v-7.28a1,1,0,0,1,1-1H208a1,1,0,0,1,1,1v7.28A6.37,6.37,0,0,1,202.62,174.26Zm-6.25-12.64v6.28a4.36,4.36,0,0,0,4.36,4.36h1.89A4.36,4.36,0,0,0,207,167.9v-6.28Z" fill="#093f68"></path><ellipse cx="165.64" cy="127.77" rx="12.25" ry="10.59" fill="#ffc9b0"></ellipse><path d="M165.64,139.35c-7.31,0-13.25-5.19-13.25-11.58s5.94-11.59,13.25-11.59,13.25,5.2,13.25,11.59S172.94,139.35,165.64,139.35Zm0-21.17c-6.21,0-11.25,4.3-11.25,9.59s5,9.58,11.25,9.58,11.25-4.3,11.25-9.58S171.84,118.18,165.64,118.18Z" fill="#093f68"></path><ellipse cx="237.06" cy="127.77" rx="12.25" ry="10.59" fill="#ffc9b0"></ellipse><path d="M237.06,139.35c-7.31,0-13.25-5.19-13.25-11.58s5.94-11.59,13.25-11.59,13.25,5.2,13.25,11.59S244.37,139.35,237.06,139.35Zm0-21.17c-6.21,0-11.25,4.3-11.25,9.59s5,9.58,11.25,9.58,11.25-4.3,11.25-9.58S243.26,118.18,237.06,118.18Z" fill="#093f68"></path><path d="M201.67,162.27h0a37,37,0,0,1-36.94-37.05V108.06c0-8.9,13.55-25.53,22.43-25.53,0,0,1.44,8.42,15.4,15.79,9.77,5.15,23.54,5.49,36.06-3.24v30.14A37,37,0,0,1,201.67,162.27Z" fill="#ffc9b0"></path><path d="M201.67,163.27a38,38,0,0,1-37.94-38.05V108.06c0-4.46,3.11-10.88,8.12-16.75,5.23-6.13,11-9.78,15.31-9.78a1,1,0,0,1,1,.83c0,.07,1.61,8.07,14.88,15.07,8.38,4.43,22,5.92,35-3.17a1,1,0,0,1,1-.07,1,1,0,0,1,.53.89v30.14A38,38,0,0,1,201.67,163.27ZM186.4,83.57c-8.41.91-20.67,16.5-20.67,24.49v17.16a35.95,35.95,0,1,0,71.89,0V96.94c-13.29,8.43-27,6.78-35.52,2.26C190.31,93,187.17,86,186.4,83.57Z" fill="#093f68"></path><path d="M201.5,132.36a20.33,20.33,0,0,1-3.32-.28,1,1,0,0,1-.81-1.15,1,1,0,0,1,1.15-.82,15.81,15.81,0,0,0,5.14,0c.27-.93-1-4.67-2.87-8.21a1,1,0,0,1,.42-1.34,1,1,0,0,1,1.35.42c.93,1.79,3.9,7.81,2.9,10a1.76,1.76,0,0,1-1.2,1A11.56,11.56,0,0,1,201.5,132.36Z" fill="#093f68"></path><path d="M175.24,111.35a2,2,0,0,1,0-4l16.31-.21a2,2,0,1,1,.05,4l-16.31.21Z" fill="#093f68"></path><path d="M229.6,111.05h0l-16.32-.1a2,2,0,0,1,0-4h0l16.31.1a2,2,0,0,1,0,4Z" fill="#093f68"></path><path d="M180.78,122.49a1,1,0,0,1-.65-.24,1,1,0,0,1-.11-1.4c.1-.12,2.51-2.92,5.8-3a6.61,6.61,0,0,1,5,2.19,1,1,0,0,1-1.42,1.41,4.72,4.72,0,0,0-3.51-1.6c-2.4.09-4.34,2.32-4.36,2.34A1,1,0,0,1,180.78,122.49Z" fill="#093f68"></path><path d="M225.07,122.49a1,1,0,0,1-.77-.35s-2-2.25-4.36-2.34a4.69,4.69,0,0,0-3.51,1.6A1,1,0,0,1,215,120a6.6,6.6,0,0,1,5-2.19c3.28.13,5.7,2.93,5.8,3a1,1,0,0,1-.12,1.4A1,1,0,0,1,225.07,122.49Z" fill="#093f68"></path><path d="M202.66,144.55a24.64,24.64,0,0,1-18-8.23,1,1,0,0,1,.15-1.4,1,1,0,0,1,1.41.15c.49.62,12.32,14.92,31.57,2.45a1,1,0,0,1,1.09,1.67C212.79,143.15,207.33,144.55,202.66,144.55Z" fill="#093f68"></path><polyline points="177.06 216.89 186.91 216.89 186.91 235.2" fill="#68e1fd"></polyline><path d="M186.91,236.2a1,1,0,0,1-1-1V217.89h-8.85a1,1,0,0,1,0-2h9.85a1,1,0,0,1,1,1V235.2A1,1,0,0,1,186.91,236.2Z" fill="#093f68"></path><polyline points="225.97 216.89 218.35 216.89 218.35 235.2" fill="#68e1fd"></polyline><path d="M218.35,236.2a1,1,0,0,1-1-1V216.89a1,1,0,0,1,1-1H226a1,1,0,1,1,0,2h-6.62V235.2A1,1,0,0,1,218.35,236.2Z" fill="#093f68"></path><path d="M184.88,203.63h33.26a0,0,0,0,1,0,0v28.12a9.5,9.5,0,0,1-9.5,9.5H194.38a9.5,9.5,0,0,1-9.5-9.5V203.63A0,0,0,0,1,184.88,203.63Z" fill="#f56132"></path><path d="M208.65,242.25H194.38a10.51,10.51,0,0,1-10.5-10.5V203.63a1,1,0,0,1,1-1h33.26a1,1,0,0,1,1,1v28.12A10.51,10.51,0,0,1,208.65,242.25Zm-22.77-37.62v27.12a8.51,8.51,0,0,0,8.5,8.5h14.27a8.5,8.5,0,0,0,8.49-8.5V204.63Z" fill="#093f68"></path><rect x="178.07" y="213.68" width="13.63" height="5.8" rx="2.9" fill="#ffc9b0"></rect><path d="M188.8,220.48H181a3.9,3.9,0,1,1,0-7.79h7.83a3.9,3.9,0,1,1,0,7.79ZM181,214.69a1.9,1.9,0,1,0,0,3.79h7.83a1.9,1.9,0,1,0,0-3.79Z" fill="#093f68"></path><rect x="178.07" y="219.35" width="13.63" height="5.8" rx="2.9" fill="#ffc9b0"></rect><path d="M188.8,226.14H181a3.9,3.9,0,1,1,0-7.79h7.83a3.9,3.9,0,1,1,0,7.79ZM181,220.35a1.9,1.9,0,1,0,0,3.79h7.83a1.9,1.9,0,1,0,0-3.79Z" fill="#093f68"></path><rect x="178.07" y="225.01" width="13.63" height="5.8" rx="2.9" fill="#ffc9b0"></rect><path d="M188.8,231.81H181a3.9,3.9,0,0,1,0-7.8h7.83a3.9,3.9,0,0,1,0,7.8ZM181,226a1.9,1.9,0,0,0,0,3.8h7.83a1.9,1.9,0,0,0,0-3.8Z" fill="#093f68"></path><rect x="178.07" y="230.67" width="13.63" height="5.8" rx="2.9" fill="#ffc9b0"></rect><path d="M188.8,237.47H181a3.9,3.9,0,1,1,0-7.8h7.83a3.9,3.9,0,0,1,0,7.8Zm-7.83-5.8a1.9,1.9,0,1,0,0,3.8h7.83a1.9,1.9,0,0,0,0-3.8Z" fill="#093f68"></path><rect x="211.33" y="213.68" width="13.63" height="5.8" rx="2.9" fill="#ffc9b0"></rect><path d="M222.06,220.48h-7.83a3.9,3.9,0,1,1,0-7.79h7.83a3.9,3.9,0,1,1,0,7.79Zm-7.83-5.79a1.9,1.9,0,1,0,0,3.79h7.83a1.9,1.9,0,1,0,0-3.79Z" fill="#093f68"></path><rect x="211.33" y="219.35" width="13.63" height="5.8" rx="2.9" fill="#ffc9b0"></rect><path d="M222.06,226.14h-7.83a3.9,3.9,0,1,1,0-7.79h7.83a3.9,3.9,0,1,1,0,7.79Zm-7.83-5.79a1.9,1.9,0,1,0,0,3.79h7.83a1.9,1.9,0,1,0,0-3.79Z" fill="#093f68"></path><rect x="211.33" y="225.01" width="13.63" height="5.8" rx="2.9" fill="#ffc9b0"></rect><path d="M222.06,231.81h-7.83a3.9,3.9,0,1,1,0-7.8h7.83a3.9,3.9,0,0,1,0,7.8Zm-7.83-5.8a1.9,1.9,0,1,0,0,3.8h7.83a1.9,1.9,0,0,0,0-3.8Z" fill="#093f68"></path><rect x="211.33" y="230.67" width="13.63" height="5.8" rx="2.9" fill="#ffc9b0"></rect><path d="M222.06,237.47h-7.83a3.9,3.9,0,1,1,0-7.8h7.83a3.9,3.9,0,0,1,0,7.8Zm-7.83-5.8a1.9,1.9,0,1,0,0,3.8h7.83a1.9,1.9,0,0,0,0-3.8Z" fill="#093f68"></path><path d="M218.14,203.89c0,.79-.73,1.53-2,2.17-2.82,1.4-8.29,2.36-14.59,2.36s-11.79-1-14.61-2.36c-1.3-.64-2-1.38-2-2.17,0-2.49,7.45-4.52,16.64-4.52S218.14,201.4,218.14,203.89Z" fill="#f56132"></path><path d="M201.52,209.42c-6.23,0-12-.94-15.05-2.46-1.72-.84-2.59-1.88-2.59-3.07,0-3.79,9.14-5.52,17.64-5.52s17.62,1.73,17.62,5.52c0,1.19-.87,2.23-2.59,3.07C213.5,208.48,207.73,209.42,201.52,209.42Zm0-9c-10.12,0-15.64,2.33-15.64,3.52,0,.26.39.74,1.47,1.28,2.8,1.39,8.23,2.25,14.17,2.25s11.35-.86,14.15-2.25c1.08-.54,1.47-1,1.47-1.28C217.14,202.7,211.62,200.37,201.52,200.37Z" fill="#093f68"></path><path d="M216.11,206.06c-2.82,1.4-8.29,2.36-14.59,2.36s-11.79-1-14.61-2.36c2.82-1.41,8.31-2.37,14.61-2.37S213.29,204.65,216.11,206.06Z" fill="#725858"></path><path d="M201.52,209.42c-6.23,0-12-.94-15.05-2.46a1,1,0,0,1-.56-.9,1,1,0,0,1,.55-.89c3-1.53,8.82-2.48,15.06-2.48s12,.95,15,2.48a1,1,0,0,1,.55.89,1,1,0,0,1-.55.9C213.5,208.48,207.73,209.42,201.52,209.42Zm-11.77-3.36a51.52,51.52,0,0,0,23.52,0,51.16,51.16,0,0,0-23.52,0Z" fill="#093f68"></path><path d="M195.31,197.48a1,1,0,0,1-.72-.31,1,1,0,0,1,0-1.41,3.2,3.2,0,0,0,.84-1c.13-.46-.34-1.12-.64-1.46-.15-.18-.32-.36-.48-.54a7.24,7.24,0,0,1-1.37-1.84,3.85,3.85,0,0,1,.91-4.38,1,1,0,0,1,1.38,1.44,1.85,1.85,0,0,0-.47,2.11,5.7,5.7,0,0,0,1,1.31l.53.6a3.57,3.57,0,0,1,1,3.32A4.41,4.41,0,0,1,196,197.2,1,1,0,0,1,195.31,197.48Z" fill="#fff"></path><path d="M208.92,197.86a1,1,0,0,1-.65-1.76,2.36,2.36,0,0,0,1-1.89,4.06,4.06,0,0,0-1-1.73,7.53,7.53,0,0,1-1.18-2,5.34,5.34,0,0,1,.9-4.69,1,1,0,1,1,1.67,1.09,3.59,3.59,0,0,0-.68,2.94,5.87,5.87,0,0,0,.89,1.44,5.82,5.82,0,0,1,1.34,2.68,4.27,4.27,0,0,1-1.69,3.66A1,1,0,0,1,208.92,197.86Z" fill="#fff"></path><path d="M202.49,197.21a1,1,0,0,1-.88-.52,1,1,0,0,1,.39-1.36,1.66,1.66,0,0,0,.79-1.72,6.92,6.92,0,0,0-1.09-2.46,8.16,8.16,0,0,1-1.35-3.35,7.93,7.93,0,0,1,.83-3.64,2.16,2.16,0,0,1,.95-1.16,1,1,0,0,1,.93,1.77s0,.11,0,.15a6.19,6.19,0,0,0-.68,2.7,6.05,6.05,0,0,0,1,2.47,8.53,8.53,0,0,1,1.38,3.26,3.69,3.69,0,0,1-1.79,3.73A1.12,1.12,0,0,1,202.49,197.21Z" fill="#fff"></path><path d="M154.91,84.65l10.66-.6,6.16,8.65-4.06,9.88c-1.07,2.6-4.6,2.53-6.49-.12L152.9,90.82C151,88.16,152.1,84.81,154.91,84.65Z" fill="#ffbc0e"></path><path d="M164.79,105.49a5.53,5.53,0,0,1-4.42-2.45L152.08,91.4a5.44,5.44,0,0,1-.67-5.46,4,4,0,0,1,3.44-2.29l10.66-.6a1,1,0,0,1,.87.42l6.16,8.65a1,1,0,0,1,.12,1L168.59,103a3.94,3.94,0,0,1-3.28,2.5ZM155,85.65a2,2,0,0,0-1.75,1.15,3.52,3.52,0,0,0,.5,3.44L162,101.88a3.49,3.49,0,0,0,3.09,1.59,2,2,0,0,0,1.66-1.27l3.86-9.37-5.53-7.75Zm-.05-1h0Z" fill="#093f68"></path><path d="M175.18,70.22l-4.07,9.88,6.17,8.66,10.66-.61c2.81-.16,3.9-3.51,2-6.17l-8.28-11.64C179.78,67.69,176.25,67.62,175.18,70.22Z" fill="#ffbc0e"></path><path d="M177.28,89.76a1,1,0,0,1-.82-.42l-6.16-8.66a1,1,0,0,1-.11-1l4.06-9.88h0a4,4,0,0,1,3.29-2.5,5.44,5.44,0,0,1,4.94,2.42l8.28,11.64a5.41,5.41,0,0,1,.67,5.46A3.94,3.94,0,0,1,188,89.15l-10.67.6Zm-5-9.79,5.52,7.76,10.11-.58A2,2,0,0,0,189.63,86a3.49,3.49,0,0,0-.5-3.44l-8.28-11.64a3.5,3.5,0,0,0-3.08-1.59,2,2,0,0,0-1.67,1.27Z" fill="#093f68"></path><rect x="165.82" y="79.34" width="11.01" height="13.86" rx="3.54" transform="translate(-18.28 115.33) rotate(-35.44)" fill="#ffbc0e"></rect><path d="M171.7,94.7A4.53,4.53,0,0,1,168,92.8l-3.93-5.52a4.54,4.54,0,0,1,1.07-6.34l3.2-2.27a4.53,4.53,0,0,1,6.33,1.06l3.93,5.52a4.54,4.54,0,0,1-1.07,6.34l-3.2,2.27A4.46,4.46,0,0,1,171.7,94.7ZM171,79.83a2.5,2.5,0,0,0-1.47.47l-3.2,2.27a2.56,2.56,0,0,0-.6,3.55l3.93,5.52a2.53,2.53,0,0,0,3.54.59l3.2-2.27h0a2.53,2.53,0,0,0,.6-3.55L173,80.89A2.54,2.54,0,0,0,171,79.83Z" fill="#093f68"></path><path d="M177,84.74a1,1,0,0,1-.88-.51,1,1,0,0,1,.39-1.37l4.66-2.6a1,1,0,1,1,1,1.74l-4.66,2.61A1,1,0,0,1,177,84.74Z" fill="#093f68"></path><path d="M175.26,82.3a1,1,0,0,1-.4-.09,1,1,0,0,1-.52-1.31l3-6.91a1,1,0,1,1,1.83.81l-3,6.9A1,1,0,0,1,175.26,82.3Z" fill="#093f68"></path><path d="M159.15,90.32a1,1,0,0,1-.19-2l6.66-1.3a1,1,0,1,1,.39,2l-6.66,1.3A.68.68,0,0,1,159.15,90.32Z" fill="#093f68"></path><path d="M163.62,95.52a1,1,0,0,1-.72-.31,1,1,0,0,1,0-1.42l3.79-3.6a1,1,0,0,1,1.37,1.45l-3.78,3.6A1,1,0,0,1,163.62,95.52Z" fill="#093f68"></path><path d="M226,191.37a1,1,0,0,1-.44-.1,1,1,0,0,1-.46-1.34c0-.07,3.28-6.74,1.28-10.55a1,1,0,1,1,1.77-.93c2.48,4.72-1.1,12.06-1.25,12.37A1,1,0,0,1,226,191.37Z" fill="#093f68"></path><path d="M177.06,191.37a1,1,0,0,1-.9-.55c-.15-.31-3.73-7.65-1.25-12.37a1,1,0,0,1,1.35-.42,1,1,0,0,1,.42,1.35c-2,3.81,1.24,10.48,1.27,10.55a1,1,0,0,1-.45,1.34A1,1,0,0,1,177.06,191.37Z" fill="#093f68"></path><path d="M168.35,236.2a1,1,0,0,1-1-1V216.58a1,1,0,0,1,2,0V235.2A1,1,0,0,1,168.35,236.2Z" fill="#093f68"></path><path d="M235.64,236.2a1,1,0,0,1-1-1V216.58a1,1,0,0,1,2,0V235.2A1,1,0,0,1,235.64,236.2Z" fill="#093f68"></path><path d="M165.38,149.68l-5.54,7v5.44a9,9,0,0,1-9,9H132.9a9,9,0,0,1-9-9V155a9,9,0,0,1,9-9h17.92a9,9,0,0,1,8.33,5.57Z" fill="#fff"></path><path d="M150.82,172.11H132.9a10,10,0,0,1-10-10V155a10,10,0,0,1,10-10h17.92a10,10,0,0,1,8.87,5.37l5.41-1.63a1,1,0,0,1,1.07,1.58L160.84,157v5.09A10,10,0,0,1,150.82,172.11ZM132.9,147a8,8,0,0,0-8,8v7.11a8,8,0,0,0,8,8h17.92a8,8,0,0,0,8-8v-5.44a1,1,0,0,1,.21-.62l3.57-4.48-3.18.95a1,1,0,0,1-1.21-.57,8,8,0,0,0-7.41-5Z" fill="#093f68"></path><g id="sF2efm"><path d="M141.86,165.68c-.35-.32-.68-.65-1-1l-2.94-2.58a24.41,24.41,0,0,1-1.89-1.78,6.64,6.64,0,0,1-1.27-1.91,6.2,6.2,0,0,1-.4-1.52,8.16,8.16,0,0,1-.06-1.4,3.77,3.77,0,0,1,2.57-3.5,4,4,0,0,1,4.26,1,4.89,4.89,0,0,1,.72.91l0,.07.06-.08a4.72,4.72,0,0,1,1.81-1.71,3.93,3.93,0,0,1,2.13-.42,3.77,3.77,0,0,1,2.24.9,3.84,3.84,0,0,1,1.31,2.31,6,6,0,0,1,0,1.41,6.93,6.93,0,0,1-.25,1.49,5.79,5.79,0,0,1-1.09,2,14.9,14.9,0,0,1-1.68,1.69L143.73,164c-.61.54-1.21,1.1-1.81,1.65Z" fill="#f56132"></path><path d="M141.84,166.66a1,1,0,0,1-.65-.24l-.34-.32-.69-.63-2.4-2.11-.53-.47a25.85,25.85,0,0,1-2-1.85,7.8,7.8,0,0,1-1.47-2.21,7.53,7.53,0,0,1-.46-1.77,9.35,9.35,0,0,1-.07-1.57,4.76,4.76,0,0,1,3.26-4.41,5,5,0,0,1,5.26,1.24l.08.07a5.29,5.29,0,0,1,1.41-1,4.94,4.94,0,0,1,2.66-.53,4.83,4.83,0,0,1,4.45,4,7.07,7.07,0,0,1,.05,1.64,8.36,8.36,0,0,1-.29,1.71,6.75,6.75,0,0,1-1.28,2.36,15.37,15.37,0,0,1-1.79,1.81l-1.23,1.08-1.46,1.28c-.42.37-.83.75-1.24,1.13l-.56.51A1.1,1.1,0,0,1,141.84,166.66Zm-3.6-13.87a3.34,3.34,0,0,0-1.09.19,2.8,2.8,0,0,0-1.88,2.59,6.46,6.46,0,0,0,.06,1.23,4.75,4.75,0,0,0,.32,1.26,5.56,5.56,0,0,0,1.09,1.62,24.27,24.27,0,0,0,1.81,1.71l.53.47c.81.7,1.61,1.41,2.41,2.12l.38.34,1.19-1.09,1.47-1.29,1.23-1.07a13.63,13.63,0,0,0,1.56-1.57,4.91,4.91,0,0,0,.91-1.67,5.53,5.53,0,0,0,.21-1.26,4.65,4.65,0,0,0,0-1.18,2.82,2.82,0,0,0-2.64-2.38,2.81,2.81,0,0,0-1.59.31,3.68,3.68,0,0,0-1.43,1.35,1.09,1.09,0,0,1-.87.51h0a1,1,0,0,1-.87-.43s-.06-.08-.06-.08a3.45,3.45,0,0,0-.56-.71A3.06,3.06,0,0,0,138.24,152.79Z" fill="#093f68"></path></g></g></svg>