<svg id="Layer_1" data-name="Layer 1" xmlns="http://www.w3.org/2000/svg" viewBox="0 0 400 300" width="406" height="306" class="illustration styles_illustrationTablet__1DWOa"><title>_</title><path d="M119.6,82.84C92.28,93.75,72,121.4,68,154.84c-3.36,28.19,4.68,59.34,52.05,68.21,92.17,17.27,178.49,22.19,200.53-24.4S335.84,72.27,289.07,67.11C251.88,63,173,61.55,119.6,82.84Z" fill="#e6e6e6" opacity="0.3"></path><path d="M102.06,127.23c-3.66-6.86-2.11-16.66,4.59-20.59,3.63-2.13,8.07-2.32,12-3.84s7.65-5.54,6.3-9.53c3.71,4.47,8.6,7.8,12.65,12s7.35,9.75,6.57,15.51a21,21,0,0,1-3.65,8.46C131.39,143.2,110,142,102.06,127.23Z" fill="#68e1fd"></path><path d="M102.06,127.23c-3.66-6.86-2.11-16.66,4.59-20.59,3.63-2.13,8.07-2.32,12-3.84s7.65-5.54,6.3-9.53c3.71,4.47,8.6,7.8,12.65,12s7.35,9.75,6.57,15.51a21,21,0,0,1-3.65,8.46C131.39,143.2,110,142,102.06,127.23Z" opacity="0.1"></path><path d="M278.36,186.28A20.81,20.81,0,0,0,291,203.35c12.14,5.33,29,22.67,24.72,29.41s-28-15.46-33.88-15.89-31.24-14.66-31.24-14.66Z" fill="#68e1fd"></path><path d="M278.36,186.28A20.81,20.81,0,0,0,291,203.35c12.14,5.33,29,22.67,24.72,29.41s-28-15.46-33.88-15.89-31.24-14.66-31.24-14.66Z" opacity="0.1"></path><path d="M291.29,129.43s-25-16.61-39.15-43.38c-11-20.82-18.41-21.48-25-18.12s-11.7,12.1-6.23,21.85,44.59,51.13,56.72,48.84S291.29,129.43,291.29,129.43Z" fill="#68e1fd"></path><path d="M291.29,129.43s-25-16.61-39.15-43.38c-11-20.82-18.41-21.48-25-18.12s-11.7,12.1-6.23,21.85,44.59,51.13,56.72,48.84S291.29,129.43,291.29,129.43Z" opacity="0.1"></path><path d="M276.76,199.75c-6.27,9.53-19.67,14.41-34.86,15.95a128.25,128.25,0,0,1-41.07-2.89c-24.25-5.79-51.08-28.74-55.9-33l-.76-.68s-21.15,13.22-35.94,4.52-11.14-9.78-20.38-13.78S58.09,161,60.58,153.72s25.51-4,33.22-6.07,30.59-27.88,50.31-29.24,78.48,32.67,93.18,34.5,28.19-8.65,28.19-8.65l14.63,16.85.09,1.4S288.6,181.74,276.76,199.75Z" fill="#68e1fd"></path><path d="M241.9,215.7a128.25,128.25,0,0,1-41.07-2.89c-24.25-5.79-51.08-28.74-55.9-33a15.86,15.86,0,0,1,1.11-2.36,12.89,12.89,0,0,1,5.92-5.39,10.77,10.77,0,0,1,2.91-.82c4.27-.59,8.51,2.37,12,4.58l19.82,12.4a67.13,67.13,0,0,0,11.4,6.16c8.86,3.41,18.71,3,28,5.16,4.06,1,8.09,2.48,11.21,5.25S242.4,211.63,241.9,215.7Z" fill="#fff" opacity="0.44"></path><path d="M256.74,202.06s3.67,12.64,12.7,17.62,30.82,16.11,30.54,28.46-9.86,7.4-18.41,1.26-18.19-15.84-30.16-18.8-19.4-5-20.76-12.46-5.2-22-5.2-22Z" fill="#68e1fd"></path><path d="M186.36,129.43s-15.89,38.35-23.94,63.78c0,0,8.21,7.71,14.93,10.54,0,0,20-58.47,25.63-66.74Z" fill="#24285b"></path><path d="M157.38,101.31c.15,11.71,6.42,17.84,15.1,19.88a31,31,0,0,0,6.8.8c.34,0,.7,0,1.05,0a26.94,26.94,0,0,0,13.77-3.48,16.76,16.76,0,0,0,6.36-6.82,19.31,19.31,0,0,0,1.8-5.28,27.69,27.69,0,0,0,.48-4.9q0-.39,0-.78c0-.9-.06-1.81-.14-2.75-1.28-14.74-11-34.59-22.64-34.86h-.38c-3.2,0-6.24,1.58-9,4.1-4.19,3.85-7.68,10-10,16.61-.2.55-.39,1.1-.57,1.67a55.49,55.49,0,0,0-2.41,11.06A39.38,39.38,0,0,0,157.38,101.31Z" fill="#ffd200"></path><path d="M157.38,101.31c.15,11.71,6.42,17.84,15.1,19.88a31,31,0,0,0,6.8.8c.34,0,.7,0,1.05,0a26.94,26.94,0,0,0,13.77-3.48,16.76,16.76,0,0,0,6.36-6.82,19.31,19.31,0,0,0,1.8-5.28,72.27,72.27,0,0,1-11.43,1.68c-.87.06-1.74.12-2.61.16a27.57,27.57,0,0,1-7.91-.58l-.45-.13a19.92,19.92,0,0,1-7.51-3.94l-.83-.71a34.34,34.34,0,0,1-7.71-10.62q-.72-1.5-1.35-3c-.25-.64-.49-1.28-.71-1.92-.42-1.15-.8-2.32-1.14-3.5-.2.55-.39,1.1-.57,1.67a55.49,55.49,0,0,0-2.41,11.06A39.38,39.38,0,0,0,157.38,101.31Z" opacity="0.08"></path><path d="M195.17,82c1,3.48.38,6.21-4.54,5.63a15.52,15.52,0,0,1-13-11.73c-.64-2.95-.07-6.86,3-8.26s5.81.82,7.74,2.89C190,72.14,193.87,77.62,195.17,82Z" fill="#fff" opacity="0.19"></path><path d="M198.77,97.27c-3,1.52-6.77-3.8-3.33-5.61S201.65,95.8,198.77,97.27Z" fill="#fff" opacity="0.19"></path><path d="M185,90.37c-4.6,9.93-1.79,17.62,4.7,22.85a28.66,28.66,0,0,0,5.4,3.41l.89.43a25.19,25.19,0,0,0,13,2.62,15.72,15.72,0,0,0,8.11-3.17,18.47,18.47,0,0,0,3.64-3.73,24.34,24.34,0,0,0,2.38-3.94,5.61,5.61,0,0,0,.32-.65c.35-.76.68-1.55,1-2.38,4.87-12.93,4.67-33.58-5-38.5a3,3,0,0,0-.31-.16c-2.71-1.26-5.89-1.19-9.2-.17-5.09,1.56-10.5,5.33-15.14,10-.39.39-.77.78-1.15,1.18a51.89,51.89,0,0,0-6.5,8.35A37,37,0,0,0,185,90.37Z" fill="#ffd200"></path><path d="M185,90.37c-4.6,9.93-1.79,17.62,4.7,22.85a28.66,28.66,0,0,0,5.4,3.41l.89.43a25.19,25.19,0,0,0,13,2.62,15.72,15.72,0,0,0,8.11-3.17,18.47,18.47,0,0,0,3.64-3.73,67.47,67.47,0,0,1-10.3-3.2c-.76-.29-1.52-.6-2.27-.91a26,26,0,0,1-6.43-3.69l-.33-.28a18.83,18.83,0,0,1-4.73-6.35c-.15-.31-.28-.62-.42-.94a32,32,0,0,1-2.2-12.06c0-1,0-2.07.08-3.1,0-.64.1-1.27.17-1.9.12-1.14.27-2.28.46-3.42-.39.39-.77.78-1.15,1.18a51.89,51.89,0,0,0-6.5,8.35A37,37,0,0,0,185,90.37Z" opacity="0.08"></path><path d="M224.65,89.31c-.53,3.35-2.18,5.39-6.09,2.91a14.46,14.46,0,0,1-6.2-15.12c.64-2.74,2.7-5.81,5.86-5.74s4.57,3,5.36,5.56C224.22,79,225.31,85.14,224.65,89.31Z" fill="#fff" opacity="0.19"></path><path d="M221.5,103.67c-3.12.08-4.17-5.93-.54-6.07S224.52,103.6,221.5,103.67Z" fill="#fff" opacity="0.19"></path><path d="M205.56,114.78c-4.54,9.8-1.77,17.39,4.64,22.56a28.73,28.73,0,0,0,5.33,3.36l.87.43a25,25,0,0,0,12.85,2.59,15.46,15.46,0,0,0,8-3.14,18,18,0,0,0,3.6-3.68A24,24,0,0,0,243.2,133c.11-.21.21-.43.31-.64.35-.75.68-1.53,1-2.35,4.81-12.77,4.61-33.16-4.94-38l-.31-.16c-2.68-1.24-5.82-1.17-9.09-.16-5,1.53-10.36,5.26-14.94,9.82-.38.38-.76.77-1.13,1.16a51.14,51.14,0,0,0-6.42,8.24A37,37,0,0,0,205.56,114.78Z" fill="#ffd200"></path><path d="M205.56,114.78c-4.54,9.8-1.77,17.39,4.64,22.56a28.73,28.73,0,0,0,5.33,3.36l.87.43a25,25,0,0,0,12.85,2.59,15.46,15.46,0,0,0,8-3.14,18,18,0,0,0,3.6-3.68,65.41,65.41,0,0,1-10.17-3.15c-.75-.29-1.5-.6-2.24-.91a25.76,25.76,0,0,1-6.35-3.63l-.32-.29a18.56,18.56,0,0,1-4.67-6.26c-.15-.31-.28-.62-.41-.93a31.42,31.42,0,0,1-2.18-11.91c0-1,0-2,.08-3,0-.63.1-1.26.17-1.88.12-1.12.27-2.25.45-3.37-.38.38-.76.77-1.13,1.16a51.14,51.14,0,0,0-6.42,8.24A37,37,0,0,0,205.56,114.78Z" opacity="0.08"></path><path d="M244.7,113.74c-.52,3.3-2.15,5.31-6,2.87a14.31,14.31,0,0,1-6.12-14.92C233.2,99,235.23,96,238.35,96s4.51,3,5.29,5.49C244.27,103.51,245.34,109.62,244.7,113.74Z" fill="#fff" opacity="0.19"></path><path d="M241.59,127.91c-3.08.08-4.12-5.86-.53-6S244.57,127.84,241.59,127.91Z" fill="#fff" opacity="0.19"></path><path d="M213.63,149.05l-45.81-20.36c-11.69-5.19-17.79-16.82-13.52-25.78l4.55-9.55,87.56,38.9-4.87,10.21C237.4,151.18,225,154.1,213.63,149.05Z" fill="#24285b"></path><path d="M257.65,129.68s14.52-17.26,32.42-13.72,38.55,22.58,40.53,31.13-14.06,15.54-24.71,19.64-38.21,2.9-46.13-6.36-6.41-15.74-6.41-15.74-20-3.47-36.35-16.09-38-25.7-33.17-37.24,11.9-12.31,30.89,4S244.77,125.8,257.65,129.68Z" fill="#68e1fd"></path><path d="M322.42,154.25a3.85,3.85,0,0,0,3.66,2.19,4.34,4.34,0,0,0,1.69-.63c3.81-2.25,6.49-10.85.76-12.63S320.44,150.48,322.42,154.25Z" fill="#24285b"></path></svg>